<mxfile host="app.diagrams.net" agent="Mozilla/5.0 (Windows NT 6.1; Win64; x64; rv:108.0) Gecko/20100101 Firefox/108.0" version="27.1.4">
  <diagram name="PÃ¡gina-1" id="lj5JoAW72plSsCzFd5W8">
    <mxGraphModel dx="2037" dy="1124" grid="1" gridSize="10" guides="1" tooltips="1" connect="1" arrows="1" fold="1" page="1" pageScale="1" pageWidth="827" pageHeight="1169" math="0" shadow="0">
      <root>
        <mxCell id="0" />
        <mxCell id="1" parent="0" />
        <mxCell id="mwq1hdQ9aeQBlKxll_Tp-1" value="Livros" style="swimlane;fontStyle=0;childLayout=stackLayout;horizontal=1;startSize=30;horizontalStack=0;resizeParent=1;resizeParentMax=0;resizeLast=0;collapsible=1;marginBottom=0;whiteSpace=wrap;html=1;movable=1;resizable=1;rotatable=1;deletable=1;editable=1;locked=0;connectable=1;" parent="1" vertex="1">
          <mxGeometry x="120" y="135" width="270" height="338" as="geometry" />
        </mxCell>
        <mxCell id="mwq1hdQ9aeQBlKxll_Tp-2" value="&amp;nbsp;- titulo: String" style="text;strokeColor=none;fillColor=none;align=left;verticalAlign=middle;spacingLeft=4;spacingRight=4;overflow=hidden;points=[[0,0.5],[1,0.5]];portConstraint=eastwest;rotatable=0;whiteSpace=wrap;html=1;" parent="mwq1hdQ9aeQBlKxll_Tp-1" vertex="1">
          <mxGeometry y="30" width="270" height="30" as="geometry" />
        </mxCell>
        <mxCell id="mwq1hdQ9aeQBlKxll_Tp-3" value="- autor: String" style="text;strokeColor=none;fillColor=none;align=left;verticalAlign=middle;spacingLeft=4;spacingRight=4;overflow=hidden;points=[[0,0.5],[1,0.5]];portConstraint=eastwest;rotatable=0;whiteSpace=wrap;html=1;" parent="mwq1hdQ9aeQBlKxll_Tp-1" vertex="1">
          <mxGeometry y="60" width="270" height="30" as="geometry" />
        </mxCell>
        <mxCell id="mwq1hdQ9aeQBlKxll_Tp-4" value="- isbn: String {PK}&amp;nbsp;" style="text;strokeColor=none;fillColor=none;align=left;verticalAlign=middle;spacingLeft=4;spacingRight=4;overflow=hidden;points=[[0,0.5],[1,0.5]];portConstraint=eastwest;rotatable=0;whiteSpace=wrap;html=1;" parent="mwq1hdQ9aeQBlKxll_Tp-1" vertex="1">
          <mxGeometry y="90" width="270" height="30" as="geometry" />
        </mxCell>
        <mxCell id="mwq1hdQ9aeQBlKxll_Tp-5" value="- anoPublicacao: int&amp;nbsp;" style="text;strokeColor=none;fillColor=none;align=left;verticalAlign=middle;spacingLeft=4;spacingRight=4;overflow=hidden;points=[[0,0.5],[1,0.5]];portConstraint=eastwest;rotatable=0;whiteSpace=wrap;html=1;" parent="mwq1hdQ9aeQBlKxll_Tp-1" vertex="1">
          <mxGeometry y="120" width="270" height="30" as="geometry" />
        </mxCell>
        <mxCell id="mwq1hdQ9aeQBlKxll_Tp-6" value="&lt;span class=&quot;selected&quot;&gt;- editora: String&lt;/span&gt;" style="text;strokeColor=none;fillColor=none;align=left;verticalAlign=middle;spacingLeft=4;spacingRight=4;overflow=hidden;points=[[0,0.5],[1,0.5]];portConstraint=eastwest;rotatable=0;whiteSpace=wrap;html=1;" parent="mwq1hdQ9aeQBlKxll_Tp-1" vertex="1">
          <mxGeometry y="150" width="270" height="30" as="geometry" />
        </mxCell>
        <mxCell id="mwq1hdQ9aeQBlKxll_Tp-7" value="&lt;span class=&quot;selected&quot;&gt;- qtdExemplaresDisponiveis: int&lt;/span&gt;" style="text;strokeColor=none;fillColor=none;align=left;verticalAlign=middle;spacingLeft=4;spacingRight=4;overflow=hidden;points=[[0,0.5],[1,0.5]];portConstraint=eastwest;rotatable=0;whiteSpace=wrap;html=1;" parent="mwq1hdQ9aeQBlKxll_Tp-1" vertex="1">
          <mxGeometry y="180" width="270" height="30" as="geometry" />
        </mxCell>
        <mxCell id="mwq1hdQ9aeQBlKxll_Tp-8" value="" style="line;strokeWidth=1;fillColor=none;align=left;verticalAlign=middle;spacingTop=-1;spacingLeft=3;spacingRight=3;rotatable=0;labelPosition=right;points=[];portConstraint=eastwest;strokeColor=inherit;" parent="mwq1hdQ9aeQBlKxll_Tp-1" vertex="1">
          <mxGeometry y="210" width="270" height="8" as="geometry" />
        </mxCell>
        <mxCell id="mwq1hdQ9aeQBlKxll_Tp-9" value="&lt;span class=&quot;selected&quot;&gt;+ Livro(titulo, autor, isbn, ano, editora, qtdInicial)&lt;/span&gt;" style="text;strokeColor=none;fillColor=none;align=left;verticalAlign=middle;spacingLeft=4;spacingRight=4;overflow=hidden;points=[[0,0.5],[1,0.5]];portConstraint=eastwest;rotatable=1;whiteSpace=wrap;html=1;movable=1;resizable=1;deletable=1;editable=1;locked=0;connectable=1;strokeWidth=1;" parent="mwq1hdQ9aeQBlKxll_Tp-1" vertex="1">
          <mxGeometry y="218" width="270" height="30" as="geometry" />
        </mxCell>
        <mxCell id="mwq1hdQ9aeQBlKxll_Tp-10" value="&lt;span class=&quot;selected&quot;&gt;+ getIsbn(): String&lt;/span&gt;" style="text;strokeColor=none;fillColor=none;align=left;verticalAlign=middle;spacingLeft=4;spacingRight=4;overflow=hidden;points=[[0,0.5],[1,0.5]];portConstraint=eastwest;rotatable=1;whiteSpace=wrap;html=1;movable=1;resizable=1;deletable=1;editable=1;locked=0;connectable=1;" parent="mwq1hdQ9aeQBlKxll_Tp-1" vertex="1">
          <mxGeometry y="248" width="270" height="30" as="geometry" />
        </mxCell>
        <mxCell id="mwq1hdQ9aeQBlKxll_Tp-11" value="&lt;span class=&quot;selected&quot;&gt;+ getAutor(): String&lt;/span&gt;" style="text;strokeColor=none;fillColor=none;align=left;verticalAlign=middle;spacingLeft=4;spacingRight=4;overflow=hidden;points=[[0,0.5],[1,0.5]];portConstraint=eastwest;rotatable=1;whiteSpace=wrap;html=1;movable=1;resizable=1;deletable=1;editable=1;locked=0;connectable=1;" parent="mwq1hdQ9aeQBlKxll_Tp-1" vertex="1">
          <mxGeometry y="278" width="270" height="30" as="geometry" />
        </mxCell>
        <mxCell id="mwq1hdQ9aeQBlKxll_Tp-12" value="&lt;span class=&quot;selected&quot;&gt;+ getQtdExemplaresDisponiveis(): int&lt;/span&gt;" style="text;strokeColor=none;fillColor=none;align=left;verticalAlign=middle;spacingLeft=4;spacingRight=4;overflow=hidden;points=[[0,0.5],[1,0.5]];portConstraint=eastwest;rotatable=1;whiteSpace=wrap;html=1;movable=1;resizable=1;deletable=1;editable=1;locked=0;connectable=1;" parent="mwq1hdQ9aeQBlKxll_Tp-1" vertex="1">
          <mxGeometry y="308" width="270" height="30" as="geometry" />
        </mxCell>
        <mxCell id="mwq1hdQ9aeQBlKxll_Tp-15" value="Usuario" style="swimlane;fontStyle=0;childLayout=stackLayout;horizontal=1;startSize=30;horizontalStack=0;resizeParent=1;resizeParentMax=0;resizeLast=0;collapsible=1;marginBottom=0;whiteSpace=wrap;html=1;" parent="1" vertex="1">
          <mxGeometry x="1230" y="135" width="166" height="218" as="geometry" />
        </mxCell>
        <mxCell id="mwq1hdQ9aeQBlKxll_Tp-16" value="&lt;span class=&quot;selected&quot;&gt;- nome: String&lt;/span&gt;" style="text;strokeColor=none;fillColor=none;align=left;verticalAlign=middle;spacingLeft=4;spacingRight=4;overflow=hidden;points=[[0,0.5],[1,0.5]];portConstraint=eastwest;rotatable=0;whiteSpace=wrap;html=1;" parent="mwq1hdQ9aeQBlKxll_Tp-15" vertex="1">
          <mxGeometry y="30" width="166" height="30" as="geometry" />
        </mxCell>
        <mxCell id="mwq1hdQ9aeQBlKxll_Tp-17" value="&lt;span class=&quot;selected&quot;&gt;- cpf: String {PK}&lt;/span&gt;" style="text;strokeColor=none;fillColor=none;align=left;verticalAlign=middle;spacingLeft=4;spacingRight=4;overflow=hidden;points=[[0,0.5],[1,0.5]];portConstraint=eastwest;rotatable=0;whiteSpace=wrap;html=1;" parent="mwq1hdQ9aeQBlKxll_Tp-15" vertex="1">
          <mxGeometry y="60" width="166" height="30" as="geometry" />
        </mxCell>
        <mxCell id="mwq1hdQ9aeQBlKxll_Tp-18" value="&lt;span class=&quot;selected&quot;&gt;- email: String&lt;/span&gt;" style="text;strokeColor=none;fillColor=none;align=left;verticalAlign=middle;spacingLeft=4;spacingRight=4;overflow=hidden;points=[[0,0.5],[1,0.5]];portConstraint=eastwest;rotatable=0;whiteSpace=wrap;html=1;" parent="mwq1hdQ9aeQBlKxll_Tp-15" vertex="1">
          <mxGeometry y="90" width="166" height="30" as="geometry" />
        </mxCell>
        <mxCell id="mwq1hdQ9aeQBlKxll_Tp-19" value="" style="line;strokeWidth=1;fillColor=none;align=left;verticalAlign=middle;spacingTop=-1;spacingLeft=3;spacingRight=3;rotatable=0;labelPosition=right;points=[];portConstraint=eastwest;strokeColor=inherit;" parent="mwq1hdQ9aeQBlKxll_Tp-15" vertex="1">
          <mxGeometry y="120" width="166" height="8" as="geometry" />
        </mxCell>
        <mxCell id="mwq1hdQ9aeQBlKxll_Tp-20" value="&lt;span class=&quot;selected&quot;&gt;+ Usuario(nome, cpf, email)&lt;/span&gt;" style="text;strokeColor=none;fillColor=none;align=left;verticalAlign=middle;spacingLeft=4;spacingRight=4;overflow=hidden;points=[[0,0.5],[1,0.5]];portConstraint=eastwest;rotatable=0;whiteSpace=wrap;html=1;" parent="mwq1hdQ9aeQBlKxll_Tp-15" vertex="1">
          <mxGeometry y="128" width="166" height="30" as="geometry" />
        </mxCell>
        <mxCell id="mwq1hdQ9aeQBlKxll_Tp-21" value="&lt;span class=&quot;selected&quot;&gt;+ getCpf(): String&lt;/span&gt;" style="text;strokeColor=none;fillColor=none;align=left;verticalAlign=middle;spacingLeft=4;spacingRight=4;overflow=hidden;points=[[0,0.5],[1,0.5]];portConstraint=eastwest;rotatable=0;whiteSpace=wrap;html=1;" parent="mwq1hdQ9aeQBlKxll_Tp-15" vertex="1">
          <mxGeometry y="158" width="166" height="30" as="geometry" />
        </mxCell>
        <mxCell id="mwq1hdQ9aeQBlKxll_Tp-22" value="&lt;span class=&quot;selected&quot;&gt;+ getNome(): String&lt;/span&gt;" style="text;strokeColor=none;fillColor=none;align=left;verticalAlign=middle;spacingLeft=4;spacingRight=4;overflow=hidden;points=[[0,0.5],[1,0.5]];portConstraint=eastwest;rotatable=0;whiteSpace=wrap;html=1;" parent="mwq1hdQ9aeQBlKxll_Tp-15" vertex="1">
          <mxGeometry y="188" width="166" height="30" as="geometry" />
        </mxCell>
        <mxCell id="mwq1hdQ9aeQBlKxll_Tp-23" value="Emprestimo" style="swimlane;fontStyle=0;childLayout=stackLayout;horizontal=1;startSize=30;horizontalStack=0;resizeParent=1;resizeParentMax=0;resizeLast=0;collapsible=1;marginBottom=0;whiteSpace=wrap;html=1;" parent="1" vertex="1">
          <mxGeometry x="600" y="125" width="440" height="188" as="geometry" />
        </mxCell>
        <mxCell id="mwq1hdQ9aeQBlKxll_Tp-27" value="- cpfUsuario: int" style="text;strokeColor=none;fillColor=none;align=left;verticalAlign=middle;spacingLeft=4;spacingRight=4;overflow=hidden;points=[[0,0.5],[1,0.5]];portConstraint=eastwest;rotatable=0;whiteSpace=wrap;html=1;" parent="mwq1hdQ9aeQBlKxll_Tp-23" vertex="1">
          <mxGeometry y="30" width="440" height="30" as="geometry" />
        </mxCell>
        <mxCell id="gL_AOGr0S3AObEwkTHye-1" value="- isbnLivro: int" style="text;strokeColor=none;fillColor=none;align=left;verticalAlign=middle;spacingLeft=4;spacingRight=4;overflow=hidden;points=[[0,0.5],[1,0.5]];portConstraint=eastwest;rotatable=0;whiteSpace=wrap;html=1;" vertex="1" parent="mwq1hdQ9aeQBlKxll_Tp-23">
          <mxGeometry y="60" width="440" height="30" as="geometry" />
        </mxCell>
        <mxCell id="mwq1hdQ9aeQBlKxll_Tp-28" value="" style="line;strokeWidth=1;fillColor=none;align=left;verticalAlign=middle;spacingTop=-1;spacingLeft=3;spacingRight=3;rotatable=0;labelPosition=right;points=[];portConstraint=eastwest;strokeColor=inherit;" parent="mwq1hdQ9aeQBlKxll_Tp-23" vertex="1">
          <mxGeometry y="90" width="440" height="8" as="geometry" />
        </mxCell>
        <mxCell id="mwq1hdQ9aeQBlKxll_Tp-29" value="&lt;span class=&quot;selected&quot;&gt;+ Emprestimo( cpfUsuario,isbnLivro)&lt;/span&gt;" style="text;strokeColor=none;fillColor=none;align=left;verticalAlign=middle;spacingLeft=4;spacingRight=4;overflow=hidden;points=[[0,0.5],[1,0.5]];portConstraint=eastwest;rotatable=0;whiteSpace=wrap;html=1;" parent="mwq1hdQ9aeQBlKxll_Tp-23" vertex="1">
          <mxGeometry y="98" width="440" height="30" as="geometry" />
        </mxCell>
        <mxCell id="mwq1hdQ9aeQBlKxll_Tp-31" value="&lt;span class=&quot;selected&quot;&gt;+ getLivro(): Livro&lt;/span&gt;" style="text;strokeColor=none;fillColor=none;align=left;verticalAlign=middle;spacingLeft=4;spacingRight=4;overflow=hidden;points=[[0,0.5],[1,0.5]];portConstraint=eastwest;rotatable=0;whiteSpace=wrap;html=1;" parent="mwq1hdQ9aeQBlKxll_Tp-23" vertex="1">
          <mxGeometry y="128" width="440" height="30" as="geometry" />
        </mxCell>
        <mxCell id="mwq1hdQ9aeQBlKxll_Tp-32" value="&lt;span class=&quot;selected&quot;&gt;+ getUsuario(): Usuario&lt;/span&gt;" style="text;strokeColor=none;fillColor=none;align=left;verticalAlign=middle;spacingLeft=4;spacingRight=4;overflow=hidden;points=[[0,0.5],[1,0.5]];portConstraint=eastwest;rotatable=0;whiteSpace=wrap;html=1;" parent="mwq1hdQ9aeQBlKxll_Tp-23" vertex="1">
          <mxGeometry y="158" width="440" height="30" as="geometry" />
        </mxCell>
        <mxCell id="mwq1hdQ9aeQBlKxll_Tp-35" value="Biblioteca/controle" style="swimlane;fontStyle=0;childLayout=stackLayout;horizontal=1;startSize=30;horizontalStack=0;resizeParent=1;resizeParentMax=0;resizeLast=0;collapsible=1;marginBottom=0;whiteSpace=wrap;html=1;" parent="1" vertex="1">
          <mxGeometry x="635" y="585" width="370" height="458" as="geometry" />
        </mxCell>
        <mxCell id="mwq1hdQ9aeQBlKxll_Tp-36" value="&lt;span class=&quot;selected&quot;&gt;- livros: Map&amp;lt;String, Livro&amp;gt;&lt;/span&gt;" style="text;strokeColor=none;fillColor=none;align=left;verticalAlign=middle;spacingLeft=4;spacingRight=4;overflow=hidden;points=[[0,0.5],[1,0.5]];portConstraint=eastwest;rotatable=0;whiteSpace=wrap;html=1;" parent="mwq1hdQ9aeQBlKxll_Tp-35" vertex="1">
          <mxGeometry y="30" width="370" height="30" as="geometry" />
        </mxCell>
        <mxCell id="mwq1hdQ9aeQBlKxll_Tp-37" value="&lt;span class=&quot;selected&quot;&gt;- usuarios: Map&amp;lt;String, Usuario&amp;gt;&lt;/span&gt;" style="text;strokeColor=none;fillColor=none;align=left;verticalAlign=middle;spacingLeft=4;spacingRight=4;overflow=hidden;points=[[0,0.5],[1,0.5]];portConstraint=eastwest;rotatable=0;whiteSpace=wrap;html=1;" parent="mwq1hdQ9aeQBlKxll_Tp-35" vertex="1">
          <mxGeometry y="60" width="370" height="30" as="geometry" />
        </mxCell>
        <mxCell id="mwq1hdQ9aeQBlKxll_Tp-38" value="&lt;span class=&quot;selected&quot;&gt;- historicoEmprestimos: List&amp;lt;Emprestimo&amp;gt;&lt;/span&gt;" style="text;strokeColor=none;fillColor=none;align=left;verticalAlign=middle;spacingLeft=4;spacingRight=4;overflow=hidden;points=[[0,0.5],[1,0.5]];portConstraint=eastwest;rotatable=0;whiteSpace=wrap;html=1;" parent="mwq1hdQ9aeQBlKxll_Tp-35" vertex="1">
          <mxGeometry y="90" width="370" height="30" as="geometry" />
        </mxCell>
        <mxCell id="mwq1hdQ9aeQBlKxll_Tp-39" value="" style="line;strokeWidth=1;fillColor=none;align=left;verticalAlign=middle;spacingTop=-1;spacingLeft=3;spacingRight=3;rotatable=0;labelPosition=right;points=[];portConstraint=eastwest;strokeColor=inherit;" parent="mwq1hdQ9aeQBlKxll_Tp-35" vertex="1">
          <mxGeometry y="120" width="370" height="8" as="geometry" />
        </mxCell>
        <mxCell id="mwq1hdQ9aeQBlKxll_Tp-40" value="&lt;span class=&quot;selected&quot;&gt;+ cadastrarLivro(titulo, autor, isbn, ano, editora, qtd): void&lt;/span&gt;" style="text;strokeColor=none;fillColor=none;align=left;verticalAlign=middle;spacingLeft=4;spacingRight=4;overflow=hidden;points=[[0,0.5],[1,0.5]];portConstraint=eastwest;rotatable=0;whiteSpace=wrap;html=1;" parent="mwq1hdQ9aeQBlKxll_Tp-35" vertex="1">
          <mxGeometry y="128" width="370" height="30" as="geometry" />
        </mxCell>
        <mxCell id="mwq1hdQ9aeQBlKxll_Tp-41" value="&lt;span class=&quot;selected&quot;&gt;+ consultarLivroPorISBN(isbn: String): Livro&lt;/span&gt;" style="text;strokeColor=none;fillColor=none;align=left;verticalAlign=middle;spacingLeft=4;spacingRight=4;overflow=hidden;points=[[0,0.5],[1,0.5]];portConstraint=eastwest;rotatable=0;whiteSpace=wrap;html=1;" parent="mwq1hdQ9aeQBlKxll_Tp-35" vertex="1">
          <mxGeometry y="158" width="370" height="30" as="geometry" />
        </mxCell>
        <mxCell id="mwq1hdQ9aeQBlKxll_Tp-42" value="&lt;span class=&quot;selected&quot;&gt;+ listarTodosLivros(): List&amp;lt;Livro&amp;gt;&lt;/span&gt;" style="text;strokeColor=none;fillColor=none;align=left;verticalAlign=middle;spacingLeft=4;spacingRight=4;overflow=hidden;points=[[0,0.5],[1,0.5]];portConstraint=eastwest;rotatable=0;whiteSpace=wrap;html=1;" parent="mwq1hdQ9aeQBlKxll_Tp-35" vertex="1">
          <mxGeometry y="188" width="370" height="30" as="geometry" />
        </mxCell>
        <mxCell id="mwq1hdQ9aeQBlKxll_Tp-43" value="&lt;span class=&quot;selected&quot;&gt;+ removerLivro(isbn: String): boolean&lt;/span&gt;" style="text;strokeColor=none;fillColor=none;align=left;verticalAlign=middle;spacingLeft=4;spacingRight=4;overflow=hidden;points=[[0,0.5],[1,0.5]];portConstraint=eastwest;rotatable=0;whiteSpace=wrap;html=1;" parent="mwq1hdQ9aeQBlKxll_Tp-35" vertex="1">
          <mxGeometry y="218" width="370" height="30" as="geometry" />
        </mxCell>
        <mxCell id="mwq1hdQ9aeQBlKxll_Tp-44" value="&lt;span class=&quot;selected&quot;&gt;+ buscarLivrosPorAutor(autor: String): List&amp;lt;Livro&amp;gt;&lt;/span&gt;" style="text;strokeColor=none;fillColor=none;align=left;verticalAlign=middle;spacingLeft=4;spacingRight=4;overflow=hidden;points=[[0,0.5],[1,0.5]];portConstraint=eastwest;rotatable=0;whiteSpace=wrap;html=1;" parent="mwq1hdQ9aeQBlKxll_Tp-35" vertex="1">
          <mxGeometry y="248" width="370" height="30" as="geometry" />
        </mxCell>
        <mxCell id="mwq1hdQ9aeQBlKxll_Tp-45" value="&lt;span class=&quot;selected&quot;&gt;+ cadastrarUsuario(nome, cpf, email: String): void&lt;/span&gt;" style="text;strokeColor=none;fillColor=none;align=left;verticalAlign=middle;spacingLeft=4;spacingRight=4;overflow=hidden;points=[[0,0.5],[1,0.5]];portConstraint=eastwest;rotatable=0;whiteSpace=wrap;html=1;" parent="mwq1hdQ9aeQBlKxll_Tp-35" vertex="1">
          <mxGeometry y="278" width="370" height="30" as="geometry" />
        </mxCell>
        <mxCell id="mwq1hdQ9aeQBlKxll_Tp-47" value="&lt;span class=&quot;selected&quot;&gt;+ listarTodosUsuarios(): List&amp;lt;Usuario&amp;gt;&lt;/span&gt;" style="text;strokeColor=none;fillColor=none;align=left;verticalAlign=middle;spacingLeft=4;spacingRight=4;overflow=hidden;points=[[0,0.5],[1,0.5]];portConstraint=eastwest;rotatable=0;whiteSpace=wrap;html=1;" parent="mwq1hdQ9aeQBlKxll_Tp-35" vertex="1">
          <mxGeometry y="308" width="370" height="30" as="geometry" />
        </mxCell>
        <mxCell id="mwq1hdQ9aeQBlKxll_Tp-48" value="&lt;span class=&quot;selected&quot;&gt;+ removerUsuario(cpf: String): boolean&lt;/span&gt;" style="text;strokeColor=none;fillColor=none;align=left;verticalAlign=middle;spacingLeft=4;spacingRight=4;overflow=hidden;points=[[0,0.5],[1,0.5]];portConstraint=eastwest;rotatable=0;whiteSpace=wrap;html=1;" parent="mwq1hdQ9aeQBlKxll_Tp-35" vertex="1">
          <mxGeometry y="338" width="370" height="30" as="geometry" />
        </mxCell>
        <mxCell id="mwq1hdQ9aeQBlKxll_Tp-49" value="&lt;span class=&quot;selected&quot;&gt;+ realizarEmprestimo(isbnLivro: String, cpfUsuario: String): boolean&lt;/span&gt;" style="text;strokeColor=none;fillColor=none;align=left;verticalAlign=middle;spacingLeft=4;spacingRight=4;overflow=hidden;points=[[0,0.5],[1,0.5]];portConstraint=eastwest;rotatable=0;whiteSpace=wrap;html=1;" parent="mwq1hdQ9aeQBlKxll_Tp-35" vertex="1">
          <mxGeometry y="368" width="370" height="30" as="geometry" />
        </mxCell>
        <mxCell id="mwq1hdQ9aeQBlKxll_Tp-50" value="&lt;span class=&quot;selected&quot;&gt;+ registrarDevolucao(isbnLivro: String, cpfUsuario: String ): boolean&lt;/span&gt;" style="text;strokeColor=none;fillColor=none;align=left;verticalAlign=middle;spacingLeft=4;spacingRight=4;overflow=hidden;points=[[0,0.5],[1,0.5]];portConstraint=eastwest;rotatable=0;whiteSpace=wrap;html=1;" parent="mwq1hdQ9aeQBlKxll_Tp-35" vertex="1">
          <mxGeometry y="398" width="370" height="30" as="geometry" />
        </mxCell>
        <mxCell id="mwq1hdQ9aeQBlKxll_Tp-51" value="&lt;span class=&quot;selected&quot;&gt;+ listarTodosLivrosEmprestados(): List&amp;lt;Emprestimo&amp;gt;&lt;/span&gt;" style="text;strokeColor=none;fillColor=none;align=left;verticalAlign=middle;spacingLeft=4;spacingRight=4;overflow=hidden;points=[[0,0.5],[1,0.5]];portConstraint=eastwest;rotatable=0;whiteSpace=wrap;html=1;" parent="mwq1hdQ9aeQBlKxll_Tp-35" vertex="1">
          <mxGeometry y="428" width="370" height="30" as="geometry" />
        </mxCell>
        <mxCell id="mwq1hdQ9aeQBlKxll_Tp-54" value="" style="endArrow=open;startArrow=open;html=1;rounded=0;exitX=1.007;exitY=0.041;exitDx=0;exitDy=0;exitPerimeter=0;startFill=0;endFill=0;" parent="1" source="mwq1hdQ9aeQBlKxll_Tp-1" edge="1">
          <mxGeometry width="50" height="50" relative="1" as="geometry">
            <mxPoint x="680" y="475" as="sourcePoint" />
            <mxPoint x="600" y="151" as="targetPoint" />
          </mxGeometry>
        </mxCell>
        <mxCell id="mwq1hdQ9aeQBlKxll_Tp-55" value="" style="endArrow=open;startArrow=open;html=1;rounded=0;entryX=0.027;entryY=0.065;entryDx=0;entryDy=0;entryPerimeter=0;exitX=0.998;exitY=0.047;exitDx=0;exitDy=0;exitPerimeter=0;startFill=0;endFill=0;" parent="1" source="mwq1hdQ9aeQBlKxll_Tp-23" target="mwq1hdQ9aeQBlKxll_Tp-15" edge="1">
          <mxGeometry width="50" height="50" relative="1" as="geometry">
            <mxPoint x="1050" y="149" as="sourcePoint" />
            <mxPoint x="920" y="415" as="targetPoint" />
          </mxGeometry>
        </mxCell>
        <mxCell id="mwq1hdQ9aeQBlKxll_Tp-56" value="" style="endArrow=classic;startArrow=classic;html=1;rounded=0;entryX=0.5;entryY=1;entryDx=0;entryDy=0;exitX=0.5;exitY=0;exitDx=0;exitDy=0;" parent="1" target="mwq1hdQ9aeQBlKxll_Tp-23" edge="1" source="mwq1hdQ9aeQBlKxll_Tp-35">
          <mxGeometry width="50" height="50" relative="1" as="geometry">
            <mxPoint x="830" y="525" as="sourcePoint" />
            <mxPoint x="814.72" y="351.98" as="targetPoint" />
            <Array as="points" />
          </mxGeometry>
        </mxCell>
        <mxCell id="mwq1hdQ9aeQBlKxll_Tp-57" value="0,N" style="text;html=1;align=center;verticalAlign=middle;whiteSpace=wrap;rounded=0;" parent="1" vertex="1">
          <mxGeometry x="1030" y="125" width="60" height="30" as="geometry" />
        </mxCell>
        <mxCell id="mwq1hdQ9aeQBlKxll_Tp-58" value="1" style="text;html=1;align=center;verticalAlign=middle;resizable=0;points=[];autosize=1;strokeColor=none;fillColor=none;" parent="1" vertex="1">
          <mxGeometry x="1200" y="125" width="30" height="30" as="geometry" />
        </mxCell>
        <mxCell id="mwq1hdQ9aeQBlKxll_Tp-59" value="1" style="text;html=1;align=center;verticalAlign=middle;resizable=0;points=[];autosize=1;strokeColor=none;fillColor=none;" parent="1" vertex="1">
          <mxGeometry x="395" y="125" width="30" height="30" as="geometry" />
        </mxCell>
        <mxCell id="mwq1hdQ9aeQBlKxll_Tp-60" value="0,1" style="text;html=1;align=center;verticalAlign=middle;resizable=0;points=[];autosize=1;strokeColor=none;fillColor=none;" parent="1" vertex="1">
          <mxGeometry x="560" y="125" width="40" height="30" as="geometry" />
        </mxCell>
        <mxCell id="mwq1hdQ9aeQBlKxll_Tp-61" value="" style="endArrow=classic;startArrow=classic;html=1;rounded=0;entryX=0.5;entryY=1;entryDx=0;entryDy=0;edgeStyle=orthogonalEdgeStyle;curved=1;exitX=0;exitY=0.5;exitDx=0;exitDy=0;" parent="1" source="mwq1hdQ9aeQBlKxll_Tp-36" target="mwq1hdQ9aeQBlKxll_Tp-1" edge="1">
          <mxGeometry width="50" height="50" relative="1" as="geometry">
            <mxPoint x="463.8900000000001" y="764.998" as="sourcePoint" />
            <mxPoint x="140" y="803.9300000000001" as="targetPoint" />
          </mxGeometry>
        </mxCell>
        <mxCell id="mwq1hdQ9aeQBlKxll_Tp-63" value="" style="endArrow=classic;startArrow=classic;html=1;rounded=0;entryX=0.25;entryY=1;entryDx=0;entryDy=0;edgeStyle=orthogonalEdgeStyle;curved=1;exitX=1;exitY=0.5;exitDx=0;exitDy=0;" parent="1" source="mwq1hdQ9aeQBlKxll_Tp-37" target="mwq1hdQ9aeQBlKxll_Tp-15" edge="1">
          <mxGeometry width="50" height="50" relative="1" as="geometry">
            <mxPoint x="1340" y="628" as="sourcePoint" />
            <mxPoint x="1340" y="515" as="targetPoint" />
          </mxGeometry>
        </mxCell>
      </root>
    </mxGraphModel>
  </diagram>
</mxfile>
